<svg xmlns="http://www.w3.org/2000/svg" xmlns:xlink="http://www.w3.org/1999/xlink" viewBox="0 0 1000 163.83"><defs><style>.cls-1{fill:url(#linear-gradient);}.cls-2{fill:url(#linear-gradient-2);}.cls-3{fill:url(#linear-gradient-3);}.cls-4{fill:url(#linear-gradient-4);}.cls-5{fill:url(#linear-gradient-5);}.cls-6{fill:url(#linear-gradient-6);}.cls-7{fill:url(#linear-gradient-7);}.cls-8{fill:url(#linear-gradient-8);}.cls-9{fill:url(#linear-gradient-9);}.cls-10{fill:url(#linear-gradient-10);}.cls-11{fill:url(#linear-gradient-11);}.cls-12{fill:url(#linear-gradient-12);}.cls-13{fill:url(#linear-gradient-13);}.cls-14{fill:url(#linear-gradient-14);}.cls-15{fill:url(#linear-gradient-15);}.cls-16{fill:url(#linear-gradient-16);}.cls-17{fill:url(#linear-gradient-17);}.cls-18{fill:url(#linear-gradient-18);}.cls-19{fill:url(#linear-gradient-19);}.cls-20{fill:url(#linear-gradient-20);}.cls-21{fill:url(#linear-gradient-21);}.cls-22{fill:url(#linear-gradient-22);}.cls-23{fill:url(#linear-gradient-23);}.cls-24{fill:url(#linear-gradient-24);}.cls-25{fill:url(#linear-gradient-25);}.cls-26{fill:url(#linear-gradient-26);}.cls-27{fill:url(#linear-gradient-27);}.cls-28{fill:url(#linear-gradient-28);}.cls-29{fill:url(#linear-gradient-29);}.cls-30{fill:url(#linear-gradient-30);}.cls-31{fill:url(#linear-gradient-31);}.cls-32{fill:url(#linear-gradient-32);}.cls-33{fill:url(#linear-gradient-33);}.cls-34{fill:url(#linear-gradient-34);}.cls-35{fill:url(#linear-gradient-35);}.cls-36{fill:url(#linear-gradient-36);}.cls-37{fill:url(#linear-gradient-37);}.cls-38{fill:url(#linear-gradient-38);}.cls-39{fill:url(#linear-gradient-39);}.cls-40{fill:url(#linear-gradient-40);}.cls-41{fill:url(#linear-gradient-41);}.cls-42{fill:url(#linear-gradient-42);}.cls-43{fill:url(#linear-gradient-43);}.cls-44{fill:url(#linear-gradient-44);}.cls-45{fill:url(#linear-gradient-45);}.cls-46{fill:url(#linear-gradient-46);}.cls-47{fill:url(#linear-gradient-47);}.cls-48{fill:url(#linear-gradient-48);}.cls-49{fill:url(#linear-gradient-49);}.cls-50{fill:url(#linear-gradient-50);}.cls-51{fill:url(#linear-gradient-51);}.cls-52{fill:url(#linear-gradient-52);}.cls-53{fill:url(#linear-gradient-53);}.cls-54{fill:url(#linear-gradient-54);}.cls-55{fill:url(#linear-gradient-55);}.cls-56{fill:url(#linear-gradient-56);}.cls-57{fill:url(#linear-gradient-57);}.cls-58{fill:url(#linear-gradient-58);}.cls-59{fill:url(#linear-gradient-59);}.cls-60{fill:url(#linear-gradient-60);}.cls-61{fill:url(#linear-gradient-61);}.cls-62{fill:url(#linear-gradient-62);}.cls-63{fill:url(#linear-gradient-63);}.cls-64{fill:url(#linear-gradient-64);}.cls-65{fill:url(#linear-gradient-65);}.cls-66{fill:url(#linear-gradient-66);}.cls-67{fill:url(#linear-gradient-67);}.cls-68{fill:url(#linear-gradient-68);}.cls-69{fill:url(#linear-gradient-69);}.cls-70{fill:url(#linear-gradient-70);}.cls-71{fill:url(#linear-gradient-71);}.cls-72{fill:url(#linear-gradient-72);}.cls-73{fill:url(#linear-gradient-73);}.cls-74{fill:url(#linear-gradient-74);}.cls-75{fill:url(#linear-gradient-75);}.cls-76{fill:url(#linear-gradient-76);}</style><linearGradient id="linear-gradient" x1="94.08" y1="590.99" x2="71.92" y2="-291.75" gradientUnits="userSpaceOnUse"><stop offset="0" stop-color="#090536"/><stop offset="1" stop-color="#05042e" stop-opacity="0"/></linearGradient><linearGradient id="linear-gradient-2" x1="96.95" y1="590.92" x2="74.78" y2="-291.83" xlink:href="#linear-gradient"/><linearGradient id="linear-gradient-3" x1="97.09" y1="590.91" x2="74.92" y2="-291.83" xlink:href="#linear-gradient"/><linearGradient id="linear-gradient-4" x1="43.05" y1="592.27" x2="20.88" y2="-290.47" xlink:href="#linear-gradient"/><linearGradient id="linear-gradient-5" x1="54.82" y1="591.97" x2="32.65" y2="-290.77" xlink:href="#linear-gradient"/><linearGradient id="linear-gradient-6" x1="50.53" y1="592.08" x2="28.36" y2="-290.66" xlink:href="#linear-gradient"/><linearGradient id="linear-gradient-7" x1="44.56" y1="592.23" x2="22.39" y2="-290.51" xlink:href="#linear-gradient"/><linearGradient id="linear-gradient-8" x1="39.26" y1="592.36" x2="17.09" y2="-290.38" xlink:href="#linear-gradient"/><linearGradient id="linear-gradient-9" x1="35.99" y1="592.45" x2="13.82" y2="-290.29" xlink:href="#linear-gradient"/><linearGradient id="linear-gradient-10" x1="29.77" y1="592.6" x2="7.6" y2="-290.14" xlink:href="#linear-gradient"/><linearGradient id="linear-gradient-11" x1="29.13" y1="592.62" x2="6.96" y2="-290.12" xlink:href="#linear-gradient"/><linearGradient id="linear-gradient-12" x1="22.13" y1="592.79" x2="-0.03" y2="-289.95" xlink:href="#linear-gradient"/><linearGradient id="linear-gradient-13" x1="23.98" y1="592.75" x2="1.81" y2="-289.99" xlink:href="#linear-gradient"/><linearGradient id="linear-gradient-14" x1="16.39" y1="592.94" x2="-5.78" y2="-289.8" xlink:href="#linear-gradient"/><linearGradient id="linear-gradient-15" x1="20.61" y1="592.83" x2="-1.56" y2="-289.91" xlink:href="#linear-gradient"/><linearGradient id="linear-gradient-16" x1="12.6" y1="593.03" x2="-9.57" y2="-289.71" xlink:href="#linear-gradient"/><linearGradient id="linear-gradient-17" x1="19.07" y1="592.87" x2="-3.1" y2="-289.87" xlink:href="#linear-gradient"/><linearGradient id="linear-gradient-18" x1="10.79" y1="593.08" x2="-11.38" y2="-289.66" xlink:href="#linear-gradient"/><linearGradient id="linear-gradient-19" x1="19.16" y1="592.87" x2="-3.01" y2="-289.87" xlink:href="#linear-gradient"/><linearGradient id="linear-gradient-20" x1="10.85" y1="593.08" x2="-11.32" y2="-289.66" xlink:href="#linear-gradient"/><linearGradient id="linear-gradient-21" x1="21.01" y1="592.82" x2="-1.16" y2="-289.92" xlink:href="#linear-gradient"/><linearGradient id="linear-gradient-22" x1="12.9" y1="593.03" x2="-9.27" y2="-289.71" xlink:href="#linear-gradient"/><linearGradient id="linear-gradient-23" x1="24.74" y1="592.73" x2="2.57" y2="-290.01" xlink:href="#linear-gradient"/><linearGradient id="linear-gradient-24" x1="17.29" y1="592.92" x2="-4.88" y2="-289.82" xlink:href="#linear-gradient"/><linearGradient id="linear-gradient-25" x1="30.4" y1="592.59" x2="8.23" y2="-290.15" xlink:href="#linear-gradient"/><linearGradient id="linear-gradient-26" x1="23.99" y1="592.75" x2="1.83" y2="-289.99" xlink:href="#linear-gradient"/><linearGradient id="linear-gradient-27" x1="38.04" y1="592.39" x2="15.87" y2="-290.35" xlink:href="#linear-gradient"/><linearGradient id="linear-gradient-28" x1="33.09" y1="592.52" x2="10.92" y2="-290.22" xlink:href="#linear-gradient"/><linearGradient id="linear-gradient-29" x1="45.21" y1="592.21" x2="23.04" y2="-290.53" xlink:href="#linear-gradient"/><linearGradient id="linear-gradient-30" x1="151.48" y1="589.55" x2="129.31" y2="-293.19" xlink:href="#linear-gradient"/><linearGradient id="linear-gradient-31" x1="134.18" y1="589.98" x2="112.01" y2="-292.76" xlink:href="#linear-gradient"/><linearGradient id="linear-gradient-32" x1="138.14" y1="589.88" x2="115.97" y2="-292.86" xlink:href="#linear-gradient"/><linearGradient id="linear-gradient-33" x1="144.72" y1="589.72" x2="122.55" y2="-293.03" xlink:href="#linear-gradient"/><linearGradient id="linear-gradient-34" x1="149.73" y1="589.59" x2="127.56" y2="-293.15" xlink:href="#linear-gradient"/><linearGradient id="linear-gradient-35" x1="153.66" y1="589.49" x2="131.49" y2="-293.25" xlink:href="#linear-gradient"/><linearGradient id="linear-gradient-36" x1="159.62" y1="589.34" x2="137.45" y2="-293.4" xlink:href="#linear-gradient"/><linearGradient id="linear-gradient-37" x1="160.95" y1="589.31" x2="138.78" y2="-293.43" xlink:href="#linear-gradient"/><linearGradient id="linear-gradient-38" x1="167.73" y1="589.14" x2="145.56" y2="-293.6" xlink:href="#linear-gradient"/><linearGradient id="linear-gradient-39" x1="166.58" y1="589.17" x2="144.41" y2="-293.57" xlink:href="#linear-gradient"/><linearGradient id="linear-gradient-40" x1="173.99" y1="588.98" x2="151.83" y2="-293.76" xlink:href="#linear-gradient"/><linearGradient id="linear-gradient-41" x1="170.47" y1="589.07" x2="148.3" y2="-293.67" xlink:href="#linear-gradient"/><linearGradient id="linear-gradient-42" x1="178.36" y1="588.87" x2="156.19" y2="-293.87" xlink:href="#linear-gradient"/><linearGradient id="linear-gradient-43" x1="172.54" y1="589.02" x2="150.38" y2="-293.72" xlink:href="#linear-gradient"/><linearGradient id="linear-gradient-44" x1="180.75" y1="588.81" x2="158.58" y2="-293.93" xlink:href="#linear-gradient"/><linearGradient id="linear-gradient-45" x1="172.92" y1="589.01" x2="150.75" y2="-293.73" xlink:href="#linear-gradient"/><linearGradient id="linear-gradient-46" x1="181.22" y1="588.8" x2="159.05" y2="-293.94" xlink:href="#linear-gradient"/><linearGradient id="linear-gradient-47" x1="171.59" y1="589.04" x2="149.43" y2="-293.7" xlink:href="#linear-gradient"/><linearGradient id="linear-gradient-48" x1="179.8" y1="588.83" x2="157.63" y2="-293.91" xlink:href="#linear-gradient"/><linearGradient id="linear-gradient-49" x1="168.38" y1="589.12" x2="146.21" y2="-293.62" xlink:href="#linear-gradient"/><linearGradient id="linear-gradient-50" x1="176.05" y1="588.93" x2="153.88" y2="-293.81" xlink:href="#linear-gradient"/><linearGradient id="linear-gradient-51" x1="163.2" y1="589.25" x2="141.03" y2="-293.49" xlink:href="#linear-gradient"/><linearGradient id="linear-gradient-52" x1="169.91" y1="589.08" x2="147.74" y2="-293.66" xlink:href="#linear-gradient"/><linearGradient id="linear-gradient-53" x1="156" y1="589.43" x2="133.83" y2="-293.31" xlink:href="#linear-gradient"/><linearGradient id="linear-gradient-54" x1="161.35" y1="589.3" x2="139.18" y2="-293.44" xlink:href="#linear-gradient"/><linearGradient id="linear-gradient-55" x1="145.05" y1="589.71" x2="122.89" y2="-293.03" xlink:href="#linear-gradient"/><linearGradient id="linear-gradient-56" x1="98.94" y1="330.38" x2="76.77" y2="-552.36" xlink:href="#linear-gradient"/><linearGradient id="linear-gradient-57" x1="68.74" y1="331.14" x2="46.57" y2="-551.6" xlink:href="#linear-gradient"/><linearGradient id="linear-gradient-58" x1="128.52" y1="329.64" x2="106.35" y2="-553.1" xlink:href="#linear-gradient"/><linearGradient id="linear-gradient-59" x1="84.77" y1="591.22" x2="62.6" y2="-291.52" xlink:href="#linear-gradient"/><linearGradient id="linear-gradient-60" x1="89.87" y1="591.09" x2="67.71" y2="-291.65" xlink:href="#linear-gradient"/><linearGradient id="linear-gradient-61" x1="95.35" y1="590.96" x2="73.18" y2="-291.79" xlink:href="#linear-gradient"/><linearGradient id="linear-gradient-62" x1="101.7" y1="590.8" x2="79.53" y2="-291.94" xlink:href="#linear-gradient"/><linearGradient id="linear-gradient-63" x1="105.88" y1="590.69" x2="83.71" y2="-292.05" xlink:href="#linear-gradient"/><linearGradient id="linear-gradient-64" x1="85.75" y1="591.2" x2="63.58" y2="-291.54" xlink:href="#linear-gradient"/><linearGradient id="linear-gradient-65" x1="91.4" y1="591.05" x2="69.23" y2="-291.69" xlink:href="#linear-gradient"/><linearGradient id="linear-gradient-66" x1="96.8" y1="590.92" x2="74.63" y2="-291.82" xlink:href="#linear-gradient"/><linearGradient id="linear-gradient-67" x1="102.32" y1="590.78" x2="80.15" y2="-291.96" xlink:href="#linear-gradient"/><linearGradient id="linear-gradient-68" x1="-75.13" y1="343.51" x2="2176.06" y2="373.74" xlink:href="#linear-gradient"/><linearGradient id="linear-gradient-69" x1="-75.09" y1="340.5" x2="2176.1" y2="370.73" xlink:href="#linear-gradient"/><linearGradient id="linear-gradient-70" x1="-75.23" y1="351.06" x2="2175.96" y2="381.29" xlink:href="#linear-gradient"/><linearGradient id="linear-gradient-71" x1="-75" y1="333.86" x2="2176.19" y2="364.09" xlink:href="#linear-gradient"/><linearGradient id="linear-gradient-72" x1="-75.2" y1="348.73" x2="2175.99" y2="378.96" xlink:href="#linear-gradient"/><linearGradient id="linear-gradient-73" x1="-75.18" y1="347.4" x2="2176.01" y2="377.64" xlink:href="#linear-gradient"/><linearGradient id="linear-gradient-74" x1="-75.03" y1="336.23" x2="2176.16" y2="366.46" xlink:href="#linear-gradient"/><linearGradient id="linear-gradient-75" x1="-75.15" y1="345.05" x2="2176.04" y2="375.28" xlink:href="#linear-gradient"/><linearGradient id="linear-gradient-76" x1="-75.14" y1="343.91" x2="2176.05" y2="374.15" xlink:href="#linear-gradient"/></defs><title>Logo2</title><g id="OBJECTS"><path class="cls-1" d="M129.6,366.6,113.75,373l-19.06,7.7h0l-.1,0-.15.05A4.19,4.19,0,0,1,94,381l-.26.07c-.13,0-.26.07-.4.09a2.84,2.84,0,0,1-.31.06l-.36,0-.33,0-.35,0h0a5.63,5.63,0,0,1-.58,0h-.09a4.46,4.46,0,0,1-.51-.07.76.76,0,0,1-.16,0h-.08l-.38-.09-.2-.06a3.57,3.57,0,0,1-.46-.16l-.15-.05-52.74-21.3a7.15,7.15,0,0,1-4.12-9.07,7,7,0,0,1,9.15-4l46.87,18.94.78.31a7.08,7.08,0,0,0,5.35,0L137,348.52l8.82-3.56a1.14,1.14,0,0,0,.07-2.12L97,320.81a12.35,12.35,0,0,0-10.17,0l-51.09,23a9.58,9.58,0,0,0-.36,17.91l52.71,21.3a9.37,9.37,0,0,0,1.95.6l.13,0,.7.1.2,0a7.87,7.87,0,0,0,.84,0h0a9.41,9.41,0,0,0,3.59-.7l48.29-19.5c2.34-.95,2.75-1.79,2.75-3.9Zm-37.66-2.67h0ZM36.57,343.6l0,0,0,0m1.63-.28-.16,0,.16,0m-.81.11-.12,0,.12,0" transform="translate(0 -260.48)"/><path class="cls-2" d="M91.94,378a8.12,8.12,0,0,1-2.23-.32l-.08,0L38.81,357.06a.81.81,0,1,1,.6-1.5L90.2,376.11a6.1,6.1,0,0,0,3.49,0l49-19.77a.81.81,0,0,1,.6,1.5L94.25,377.63l-.07,0a8.25,8.25,0,0,1-2.24.32" transform="translate(0 -260.48)"/><path class="cls-3" d="M91.94,372.34a7.77,7.77,0,0,1-2.23-.33l-.08,0L38.81,351.42a.81.81,0,1,1,.6-1.5L90.2,370.47a6.1,6.1,0,0,0,3.49,0l49-19.77a.81.81,0,1,1,.6,1.5L94.25,372l-.07,0a7.89,7.89,0,0,1-2.24.33" transform="translate(0 -260.48)"/><path class="cls-4" d="M33.66,294.59a13.81,13.81,0,0,0-4.12,7.47,13.85,13.85,0,0,0,8.06-2.82,13.82,13.82,0,0,0,4.12-7.48,13.82,13.82,0,0,0-8.06,2.83" transform="translate(0 -260.48)"/><path class="cls-5" d="M52.43,404.77a14.49,14.49,0,0,1,2.63,8c0,.06-5.81-1.81-8.31-5.87a10.18,10.18,0,0,1-1.09-8,24.21,24.21,0,0,1,6.77,5.92" transform="translate(0 -260.48)"/><path class="cls-6" d="M47.84,417.06a10,10,0,0,0,7.27-4.48c-.06,0-5.54-1.79-10.33-1.41A13.21,13.21,0,0,0,37,414.49c-.07,0,5.59,3.27,10.85,2.57" transform="translate(0 -260.48)"/><path class="cls-7" d="M42.38,399.9a14.28,14.28,0,0,1,.9,8.11c0,.06-5.08-2.71-6.66-7.05a10.2,10.2,0,0,1,.5-7.92,22,22,0,0,1,5.26,6.86" transform="translate(0 -260.48)"/><path class="cls-8" d="M35.64,411a9.87,9.87,0,0,0,7.71-3.12c-.06,0-4.82-2.64-9.44-3.08a13,13,0,0,0-8,1.9c-.07,0,4.7,4.1,9.77,4.3" transform="translate(0 -260.48)"/><path class="cls-9" d="M33.79,393.5a14,14,0,0,1-.7,8c0,.05-4.31-3.47-5-7.95A10.17,10.17,0,0,1,30,386a20.87,20.87,0,0,1,3.78,7.55" transform="translate(0 -260.48)"/><path class="cls-10" d="M25.25,403.07a9.71,9.71,0,0,0,7.94-1.7,27.38,27.38,0,0,0-8.44-4.58,12.76,12.76,0,0,0-8.1.46c-.06,0,3.78,4.78,8.6,5.82" transform="translate(0 -260.48)"/><path class="cls-11" d="M26.71,385.82a14.06,14.06,0,0,1-2.14,7.63c0,.05-3.52-4.11-3.42-8.58a10.1,10.1,0,0,1,3.23-7.05,20.28,20.28,0,0,1,2.33,8" transform="translate(0 -260.48)"/><path class="cls-12" d="M16.71,393.63a9.5,9.5,0,0,0,8-.29,26.6,26.6,0,0,0-7.34-5.9,12.63,12.63,0,0,0-8-1c-.05,0,2.85,5.31,7.32,7.15" transform="translate(0 -260.48)"/><path class="cls-13" d="M21.18,377.12a13.79,13.79,0,0,1-3.41,7.05c0,.05-2.7-4.61-1.85-9a10,10,0,0,1,4.36-6.31,19.87,19.87,0,0,1,.9,8.22" transform="translate(0 -260.48)"/><path class="cls-14" d="M10.08,383a9.44,9.44,0,0,0,7.82,1.12,26,26,0,0,0-6.13-7,12.69,12.69,0,0,0-7.61-2.35s1.89,5.69,5.92,8.27" transform="translate(0 -260.48)"/><path class="cls-15" d="M17.27,367.64a13.42,13.42,0,0,1-4.53,6.29c0,.05-1.86-5-.29-9.09a9.78,9.78,0,0,1,5.31-5.41,19.56,19.56,0,0,1-.49,8.21" transform="translate(0 -260.48)"/><path class="cls-16" d="M5.42,371.4a9.37,9.37,0,0,0,7.47,2.47,26.39,26.39,0,0,0-4.82-8A12.69,12.69,0,0,0,1,362.24s.9,5.92,4.41,9.16" transform="translate(0 -260.48)"/><path class="cls-17" d="M15,357.66A13.18,13.18,0,0,1,9.55,363s-1-5.21,1.22-9a9.57,9.57,0,0,1,6.11-4.38,19.81,19.81,0,0,1-1.85,8" transform="translate(0 -260.48)"/><path class="cls-18" d="M2.8,359.22A9.41,9.41,0,0,0,9.69,363a26.46,26.46,0,0,0-3.38-8.69A12.79,12.79,0,0,0,0,349.42s-.11,6,2.79,9.8" transform="translate(0 -260.48)"/><path class="cls-19" d="M14.5,347.41a12.9,12.9,0,0,1-6.27,4.31s-.09-5.32,2.72-8.66a9.35,9.35,0,0,1,6.73-3.24,20.13,20.13,0,0,1-3.18,7.59" transform="translate(0 -260.48)"/><path class="cls-20" d="M2.27,346.76a9.49,9.49,0,0,0,6.12,5,27.66,27.66,0,0,0-1.85-9.2,13,13,0,0,0-5.32-6s-1.15,5.93,1.05,10.2" transform="translate(0 -260.48)"/><path class="cls-21" d="M15.75,337.16a12.56,12.56,0,0,1-6.88,3.15S9.69,335,13,332.2a9.23,9.23,0,0,1,7.18-2,21.07,21.07,0,0,1-4.47,7" transform="translate(0 -260.48)"/><path class="cls-22" d="M3.89,334.33a9.51,9.51,0,0,0,5.12,6,28.35,28.35,0,0,0-.19-9.46A13,13,0,0,0,4.69,324c0-.05-2.2,5.71-.8,10.34" transform="translate(0 -260.48)"/><path class="cls-23" d="M18.81,327.17a12.4,12.4,0,0,1-7.31,1.92c-.06,0,1.76-5.13,5.6-7.37a9.21,9.21,0,0,1,7.44-.77,22.2,22.2,0,0,1-5.73,6.22" transform="translate(0 -260.48)"/><path class="cls-24" d="M7.73,322.23a9.48,9.48,0,0,0,3.91,6.91,30.76,30.76,0,0,0,1.57-9.49A13.08,13.08,0,0,0,10.5,312c0-.06-3.29,5.33-2.77,10.2" transform="translate(0 -260.48)"/><path class="cls-25" d="M23.75,317.69a12.36,12.36,0,0,1-7.57.65c-.06,0,2.74-4.83,7-6.43a9.11,9.11,0,0,1,7.52.5,23.55,23.55,0,0,1-6.95,5.28" transform="translate(0 -260.48)"/><path class="cls-26" d="M13.84,310.79a9.48,9.48,0,0,0,2.47,7.62,33.22,33.22,0,0,0,3.46-9.25A13.37,13.37,0,0,0,18.7,301c0-.06-4.4,4.81-4.86,9.79" transform="translate(0 -260.48)"/><path class="cls-27" d="M30.63,309a12.09,12.09,0,0,1-7.65-.65c-.06,0,3.73-4.4,8.35-5.3a8.92,8.92,0,0,1,7.42,1.77A26.27,26.27,0,0,1,30.63,309" transform="translate(0 -260.48)"/><path class="cls-28" d="M22.28,300.32a9.58,9.58,0,0,0,.81,8.12,37.75,37.75,0,0,0,5.47-8.76,13.88,13.88,0,0,0,.79-8.45c0-.06-5.54,4.14-7.07,9.09" transform="translate(0 -260.48)"/><path class="cls-29" d="M71.58,414.66l0-.92a56.07,56.07,0,0,1-22.22-3.33A59.15,59.15,0,0,1,30.21,399,62.11,62.11,0,0,1,9.66,358.06c-1.21-13.07.1-24.63,3.89-34.35a46,46,0,0,1,20.37-23.87l-.45-.8A46.92,46.92,0,0,0,12.7,323.38c-3.85,9.86-5.17,21.55-3.95,34.77a63,63,0,0,0,20.86,41.53A59.92,59.92,0,0,0,49,411.27a57.13,57.13,0,0,0,22.58,3.39" transform="translate(0 -260.48)"/><path class="cls-30" d="M146.1,294.59a13.78,13.78,0,0,1,4.13,7.47A12,12,0,0,1,138,291.76a13.8,13.8,0,0,1,8.06,2.83" transform="translate(0 -260.48)"/><path class="cls-31" d="M127.33,404.77a14.49,14.49,0,0,0-2.63,8c0,.06,5.82-1.81,8.31-5.87a10.18,10.18,0,0,0,1.09-8,24.21,24.21,0,0,0-6.77,5.92" transform="translate(0 -260.48)"/><path class="cls-32" d="M131.93,417.06a10,10,0,0,1-7.28-4.48c.07,0,5.54-1.79,10.33-1.41a13.21,13.21,0,0,1,7.79,3.32c.07,0-5.59,3.27-10.84,2.57" transform="translate(0 -260.48)"/><path class="cls-33" d="M137.38,399.9a14.13,14.13,0,0,0-.89,8.11c0,.06,5.07-2.71,6.65-7.05a10.2,10.2,0,0,0-.5-7.92,22,22,0,0,0-5.26,6.86" transform="translate(0 -260.48)"/><path class="cls-34" d="M144.12,411a9.87,9.87,0,0,1-7.71-3.12c.06,0,4.82-2.64,9.44-3.08a13,13,0,0,1,8,1.9c.07,0-4.7,4.1-9.77,4.3" transform="translate(0 -260.48)"/><path class="cls-35" d="M146,393.5a14.2,14.2,0,0,0,.7,8c0,.05,4.31-3.47,5-7.95a10.17,10.17,0,0,0-1.95-7.59A21.05,21.05,0,0,0,146,393.5" transform="translate(0 -260.48)"/><path class="cls-36" d="M154.51,403.07a9.71,9.71,0,0,1-7.94-1.7,27.38,27.38,0,0,1,8.44-4.58,12.76,12.76,0,0,1,8.1.46c.06,0-3.78,4.78-8.6,5.82" transform="translate(0 -260.48)"/><path class="cls-37" d="M153.05,385.82a14.06,14.06,0,0,0,2.14,7.63c0,.05,3.52-4.11,3.42-8.58a10.1,10.1,0,0,0-3.23-7.05,20.28,20.28,0,0,0-2.33,8" transform="translate(0 -260.48)"/><path class="cls-38" d="M163.06,393.63a9.52,9.52,0,0,1-8-.29,26.6,26.6,0,0,1,7.34-5.9,12.63,12.63,0,0,1,8-1c.06,0-2.85,5.31-7.31,7.15" transform="translate(0 -260.48)"/><path class="cls-39" d="M158.58,377.12a13.79,13.79,0,0,0,3.41,7.05c0,.05,2.7-4.61,1.85-9a10,10,0,0,0-4.36-6.31,19.87,19.87,0,0,0-.9,8.22" transform="translate(0 -260.48)"/><path class="cls-40" d="M169.68,383a9.44,9.44,0,0,1-7.82,1.12,26,26,0,0,1,6.13-7,12.69,12.69,0,0,1,7.61-2.35c.05,0-1.88,5.69-5.92,8.27" transform="translate(0 -260.48)"/><path class="cls-41" d="M162.49,367.64a13.42,13.42,0,0,0,4.53,6.29c0,.05,1.86-5,.3-9.09a9.82,9.82,0,0,0-5.32-5.41,19.56,19.56,0,0,0,.49,8.21" transform="translate(0 -260.48)"/><path class="cls-42" d="M174.34,371.4a9.35,9.35,0,0,1-7.46,2.47,26,26,0,0,1,4.81-8,12.69,12.69,0,0,1,7.06-3.66c.05,0-.9,5.92-4.41,9.16" transform="translate(0 -260.48)"/><path class="cls-43" d="M164.73,357.66a13.17,13.17,0,0,0,5.49,5.36s1-5.21-1.23-9a9.57,9.57,0,0,0-6.11-4.38,19.81,19.81,0,0,0,1.85,8" transform="translate(0 -260.48)"/><path class="cls-44" d="M177,359.22a9.41,9.41,0,0,1-6.89,3.77,26.46,26.46,0,0,1,3.38-8.69,12.79,12.79,0,0,1,6.3-4.88s.11,6-2.79,9.8" transform="translate(0 -260.48)"/><path class="cls-45" d="M165.26,347.41a12.9,12.9,0,0,0,6.27,4.31s.09-5.32-2.72-8.66a9.35,9.35,0,0,0-6.73-3.24,20.13,20.13,0,0,0,3.18,7.59" transform="translate(0 -260.48)"/><path class="cls-46" d="M177.49,346.76a9.51,9.51,0,0,1-6.11,5,27.23,27.23,0,0,1,1.84-9.2,13,13,0,0,1,5.32-6s1.15,5.93-1,10.2" transform="translate(0 -260.48)"/><path class="cls-47" d="M164,337.16a12.5,12.5,0,0,0,6.88,3.15s-.83-5.29-4.18-8.11a9.23,9.23,0,0,0-7.18-2,21,21,0,0,0,4.48,7" transform="translate(0 -260.48)"/><path class="cls-48" d="M175.87,334.33a9.51,9.51,0,0,1-5.12,6,28.66,28.66,0,0,1,.19-9.46,13,13,0,0,1,4.13-6.89c0-.05,2.2,5.71.8,10.34" transform="translate(0 -260.48)"/><path class="cls-49" d="M161,327.17a12.41,12.41,0,0,0,7.32,1.92s-1.77-5.13-5.61-7.37a9.21,9.21,0,0,0-7.44-.77,22.2,22.2,0,0,0,5.73,6.22" transform="translate(0 -260.48)"/><path class="cls-50" d="M172,322.23a9.52,9.52,0,0,1-3.9,6.91,30.29,30.29,0,0,1-1.58-9.49,13.16,13.16,0,0,1,2.71-7.62c0-.06,3.29,5.33,2.77,10.2" transform="translate(0 -260.48)"/><path class="cls-51" d="M156,317.69a12.36,12.36,0,0,0,7.57.65c.06,0-2.74-4.83-7-6.43a9.12,9.12,0,0,0-7.52.5,23.55,23.55,0,0,0,6.95,5.28" transform="translate(0 -260.48)"/><path class="cls-52" d="M165.93,310.79a9.51,9.51,0,0,1-2.48,7.62,33.22,33.22,0,0,1-3.46-9.25,13.37,13.37,0,0,1,1.07-8.16c0-.06,4.41,4.81,4.87,9.79" transform="translate(0 -260.48)"/><path class="cls-53" d="M149.13,309a12.09,12.09,0,0,0,7.65-.65c.07,0-3.73-4.4-8.35-5.3a8.92,8.92,0,0,0-7.42,1.77,26.27,26.27,0,0,0,8.12,4.18" transform="translate(0 -260.48)"/><path class="cls-54" d="M157.48,300.32a9.54,9.54,0,0,1-.81,8.12,37.75,37.75,0,0,1-5.47-8.76,13.88,13.88,0,0,1-.79-8.45c0-.06,5.54,4.14,7.07,9.09" transform="translate(0 -260.48)"/><path class="cls-55" d="M108.19,414.66l0-.92a56.07,56.07,0,0,0,22.22-3.33A59,59,0,0,0,149.55,399a62.11,62.11,0,0,0,20.55-40.94c1.21-13.07-.1-24.63-3.89-34.35a46,46,0,0,0-20.37-23.87l.45-.8a46.92,46.92,0,0,1,20.77,24.34c3.85,9.86,5.18,21.55,3.95,34.77a63,63,0,0,1-20.86,41.53,59.82,59.82,0,0,1-19.39,11.59,57.11,57.11,0,0,1-22.57,3.39" transform="translate(0 -260.48)"/><polygon class="cls-56" points="90.87 0 94.75 7.87 103.44 9.13 97.15 15.25 98.64 23.9 90.87 19.82 83.1 23.9 84.59 15.25 78.3 9.13 86.99 7.87 90.87 0"/><polygon class="cls-57" points="60.96 14.65 63.83 20.46 70.24 21.39 65.6 25.92 66.7 32.3 60.96 29.29 55.23 32.3 56.32 25.92 51.68 21.39 58.09 20.46 60.96 14.65"/><polygon class="cls-58" points="120.78 14.65 123.65 20.46 130.06 21.39 125.42 25.92 126.51 32.3 120.78 29.29 115.04 32.3 116.14 25.92 111.49 21.39 117.91 20.46 120.78 14.65"/><path class="cls-59" d="M82,407.86H79.13v2.62h3.15v.79H78.19V404h3.93v.79h-3v2.3H82Z" transform="translate(0 -260.48)"/><path class="cls-60" d="M83.37,410.13a3.29,3.29,0,0,0,1.68.47c1,0,1.52-.51,1.52-1.24s-.39-1.07-1.37-1.44c-1.19-.42-1.92-1-1.92-2.06a2.09,2.09,0,0,1,2.35-2,3.4,3.4,0,0,1,1.61.35L87,405a2.88,2.88,0,0,0-1.38-.35c-1,0-1.37.59-1.37,1.09,0,.68.44,1,1.44,1.4,1.23.48,1.86,1.07,1.86,2.14s-.83,2.09-2.55,2.09a3.73,3.73,0,0,1-1.85-.47Z" transform="translate(0 -260.48)"/><path class="cls-61" d="M90.19,404.8H88V404h5.38v.8H91.14v6.47h-1Z" transform="translate(0 -260.48)"/><path class="cls-62" d="M94.16,404.1a14.46,14.46,0,0,1,2-.15,4.12,4.12,0,0,1,2.94.91,3.32,3.32,0,0,1,1,2.6,3.85,3.85,0,0,1-1,2.83,4.47,4.47,0,0,1-3.21,1,16.51,16.51,0,0,1-1.71-.08Zm.94,6.43a6.39,6.39,0,0,0,1,.05,2.79,2.79,0,0,0,3.09-3.08c0-1.72-1-2.81-2.94-2.81a5.64,5.64,0,0,0-1.1.1Z" transform="translate(0 -260.48)"/><path class="cls-63" d="M100.72,410.71a.64.64,0,1,1,.63.68A.64.64,0,0,1,100.72,410.71Z" transform="translate(0 -260.48)"/><path class="cls-64" d="M79.31,424.2v-.58l.74-.72c1.79-1.71,2.6-2.61,2.61-3.67a1.25,1.25,0,0,0-1.39-1.37,2.42,2.42,0,0,0-1.49.6l-.3-.67a3.1,3.1,0,0,1,2-.71,2,2,0,0,1,2.14,2c0,1.3-.94,2.34-2.41,3.76l-.56.52v0h3.14v.79Z" transform="translate(0 -260.48)"/><path class="cls-65" d="M89.49,420.62c0,2.38-.88,3.7-2.43,3.7-1.37,0-2.3-1.28-2.32-3.6s1-3.64,2.44-3.64S89.49,418.39,89.49,420.62Zm-3.8.11c0,1.82.56,2.86,1.42,2.86s1.44-1.14,1.44-2.93-.45-2.85-1.43-2.85S85.69,418.82,85.69,420.73Z" transform="translate(0 -260.48)"/><path class="cls-66" d="M90.37,424.2v-.58l.74-.72c1.79-1.71,2.6-2.61,2.61-3.67a1.25,1.25,0,0,0-1.39-1.37,2.38,2.38,0,0,0-1.49.6l-.3-.67a3,3,0,0,1,2-.71,2,2,0,0,1,2.15,2c0,1.3-.94,2.34-2.42,3.76l-.56.52v0h3.15v.79Z" transform="translate(0 -260.48)"/><path class="cls-67" d="M95.89,424.2v-.58l.75-.72c1.79-1.71,2.6-2.61,2.61-3.67a1.25,1.25,0,0,0-1.39-1.37,2.38,2.38,0,0,0-1.49.6l-.3-.67a3,3,0,0,1,2-.71,2,2,0,0,1,2.14,2c0,1.3-.93,2.34-2.41,3.76l-.56.52v0h3.15v.79Z" transform="translate(0 -260.48)"/><path class="cls-68" d="M247.83,323.67v11.89H277.9v22.83H247.83v13.68H282v24.2H217.48v-96.8H282v24.2Z" transform="translate(0 -260.48)"/><path class="cls-69" d="M293.55,336.6A31.83,31.83,0,0,1,305,322.93a29.11,29.11,0,0,1,16.26-4.72,25.65,25.65,0,0,1,12.92,3.07,21,21,0,0,1,8.28,8.41V295.1h30.35V396.27H342.43V385.74a20.93,20.93,0,0,1-8.28,8.41,25.65,25.65,0,0,1-12.92,3.07A29.19,29.19,0,0,1,305,392.51a31.88,31.88,0,0,1-11.42-13.67q-4.17-9-4.17-21.12T293.55,336.6Zm45.86,11.55a11.22,11.22,0,0,0-16.13,0c-2.09,2.28-3.14,5.46-3.14,9.57s1.05,7.29,3.14,9.56a11.22,11.22,0,0,0,16.13,0c2.11-2.27,3.15-5.46,3.15-9.56S341.52,350.43,339.41,348.15Z" transform="translate(0 -260.48)"/><path class="cls-70" d="M468.07,319.17v77.1H437.72V384.51a27.34,27.34,0,0,1-9.5,8.89,28,28,0,0,1-14.15,3.41q-13.27,0-20.72-8.88t-7.45-24.06v-44.7h30.21V360q0,5.47,2.94,8.68a11.33,11.33,0,0,0,15.8,0q2.86-3.21,2.87-8.68V319.17Z" transform="translate(0 -260.48)"/><path class="cls-71" d="M546,313.43a8.75,8.75,0,0,0-5.19,1.29,7,7,0,0,0-2.47,4.45h11.08v25.28H538.06v51.82H507.71V344.45h-8.2V319.17h8.2q.27-15,9.5-23.31t25.91-8.28c1.27,0,3.36.1,6.29.28v25.83C547.76,313.51,546.63,313.43,546,313.43Z" transform="translate(0 -260.48)"/><path class="cls-72" d="M573.33,392.44a35.2,35.2,0,0,1-14.56-13.74q-5.26-8.94-5.26-21t5.26-21A35.33,35.33,0,0,1,573.33,323a48.15,48.15,0,0,1,41.83,0,35.27,35.27,0,0,1,14.56,13.74q5.26,9,5.26,21t-5.26,21a35.14,35.14,0,0,1-14.56,13.74,48.15,48.15,0,0,1-41.83,0Zm28-24.81q2.88-3.36,2.87-9.91t-2.87-9.92a9.22,9.22,0,0,0-14.22,0q-2.86,3.36-2.87,9.92t2.81,9.91a9.28,9.28,0,0,0,14.28,0Z" transform="translate(0 -260.48)"/><path class="cls-73" d="M686.25,322.65a26.71,26.71,0,0,1,13.94-4V351h-8.61q-8.61,0-12.64,3c-2.69,2-4,5.56-4,10.67v31.58H644.55v-77.1H674.9v14.21A36.92,36.92,0,0,1,686.25,322.65Z" transform="translate(0 -260.48)"/><path class="cls-74" d="M824.6,299.47l-34.73,67.4v29.4H759.52v-29.4l-34.72-67.4h34.72L775,333.8l15.44-34.33Z" transform="translate(0 -260.48)"/><path class="cls-75" d="M847.16,392.44a35.22,35.22,0,0,1-14.57-13.74,44.49,44.49,0,0,1,0-42A35.35,35.35,0,0,1,847.16,323,48.15,48.15,0,0,1,889,323a35.33,35.33,0,0,1,14.56,13.74,40.64,40.64,0,0,1,5.27,21q0,12-5.27,21A35.2,35.2,0,0,1,889,392.44a48.15,48.15,0,0,1-41.83,0Zm28-24.81q2.88-3.36,2.87-9.91t-2.87-9.92a9.22,9.22,0,0,0-14.22,0q-2.87,3.36-2.87,9.92t2.81,9.91a9.28,9.28,0,0,0,14.28,0Z" transform="translate(0 -260.48)"/><path class="cls-76" d="M1000,319.17v77.1H969.65V384.51a27.34,27.34,0,0,1-9.5,8.89A28,28,0,0,1,946,396.81q-13.28,0-20.72-8.88t-7.45-24.06v-44.7H948V360q0,5.47,2.94,8.68a11.33,11.33,0,0,0,15.8,0q2.87-3.21,2.87-8.68V319.17Z" transform="translate(0 -260.48)"/></g></svg>