<svg xmlns="http://www.w3.org/2000/svg" xmlns:xlink="http://www.w3.org/1999/xlink" viewBox="0 0 429.42 358.72"><defs><style>.cls-1{fill:url(#linear-gradient);}.cls-2{fill:url(#linear-gradient-2);}.cls-3{fill:url(#linear-gradient-3);}.cls-4{fill:url(#linear-gradient-4);}.cls-5{fill:url(#linear-gradient-5);}.cls-6{fill:url(#linear-gradient-6);}.cls-7{fill:url(#linear-gradient-7);}.cls-8{fill:url(#linear-gradient-8);}.cls-9{fill:url(#linear-gradient-9);}.cls-10{fill:url(#linear-gradient-10);}.cls-11{fill:url(#linear-gradient-11);}.cls-12{fill:url(#linear-gradient-12);}.cls-13{fill:url(#linear-gradient-13);}.cls-14{fill:url(#linear-gradient-14);}.cls-15{fill:url(#linear-gradient-15);}.cls-16{fill:url(#linear-gradient-16);}.cls-17{fill:url(#linear-gradient-17);}.cls-18{fill:url(#linear-gradient-18);}.cls-19{fill:url(#linear-gradient-19);}.cls-20{fill:url(#linear-gradient-20);}.cls-21{fill:url(#linear-gradient-21);}.cls-22{fill:url(#linear-gradient-22);}.cls-23{fill:url(#linear-gradient-23);}.cls-24{fill:url(#linear-gradient-24);}.cls-25{fill:url(#linear-gradient-25);}.cls-26{fill:url(#linear-gradient-26);}.cls-27{fill:url(#linear-gradient-27);}.cls-28{fill:url(#linear-gradient-28);}.cls-29{fill:url(#linear-gradient-29);}.cls-30{fill:url(#linear-gradient-30);}.cls-31{fill:url(#linear-gradient-31);}.cls-32{fill:url(#linear-gradient-32);}.cls-33{fill:url(#linear-gradient-33);}.cls-34{fill:url(#linear-gradient-34);}.cls-35{fill:url(#linear-gradient-35);}.cls-36{fill:url(#linear-gradient-36);}.cls-37{fill:url(#linear-gradient-37);}.cls-38{fill:url(#linear-gradient-38);}.cls-39{fill:url(#linear-gradient-39);}.cls-40{fill:url(#linear-gradient-40);}.cls-41{fill:url(#linear-gradient-41);}.cls-42{fill:url(#linear-gradient-42);}.cls-43{fill:url(#linear-gradient-43);}.cls-44{fill:url(#linear-gradient-44);}.cls-45{fill:url(#linear-gradient-45);}.cls-46{fill:url(#linear-gradient-46);}.cls-47{fill:url(#linear-gradient-47);}.cls-48{fill:url(#linear-gradient-48);}.cls-49{fill:url(#linear-gradient-49);}.cls-50{fill:url(#linear-gradient-50);}.cls-51{fill:url(#linear-gradient-51);}.cls-52{fill:url(#linear-gradient-52);}.cls-53{fill:url(#linear-gradient-53);}.cls-54{fill:url(#linear-gradient-54);}.cls-55{fill:url(#linear-gradient-55);}.cls-56{fill:url(#linear-gradient-56);}.cls-57{fill:url(#linear-gradient-57);}.cls-58{fill:url(#linear-gradient-58);}.cls-59{fill:url(#linear-gradient-59);}.cls-60{fill:url(#linear-gradient-60);}.cls-61{fill:url(#linear-gradient-61);}.cls-62{fill:url(#linear-gradient-62);}.cls-63{fill:url(#linear-gradient-63);}.cls-64{fill:url(#linear-gradient-64);}.cls-65{fill:url(#linear-gradient-65);}.cls-66{fill:url(#linear-gradient-66);}.cls-67{fill:url(#linear-gradient-67);}.cls-68{fill:url(#linear-gradient-68);}.cls-69{fill:url(#linear-gradient-69);}.cls-70{fill:url(#linear-gradient-70);}.cls-71{fill:url(#linear-gradient-71);}.cls-72{fill:url(#linear-gradient-72);}.cls-73{fill:url(#linear-gradient-73);}.cls-74{fill:url(#linear-gradient-74);}.cls-75{fill:url(#linear-gradient-75);}.cls-76{fill:url(#linear-gradient-76);}</style><linearGradient id="linear-gradient" x1="499.17" y1="477.77" x2="491.26" y2="-68.17" gradientUnits="userSpaceOnUse"><stop offset="0" stop-color="#090536"/><stop offset="1" stop-color="#05042e" stop-opacity="0"/></linearGradient><linearGradient id="linear-gradient-2" x1="503.97" y1="477.7" x2="496.05" y2="-68.24" xlink:href="#linear-gradient"/><linearGradient id="linear-gradient-3" x1="504.1" y1="477.7" x2="496.19" y2="-68.24" xlink:href="#linear-gradient"/><linearGradient id="linear-gradient-4" x1="415.47" y1="478.98" x2="407.56" y2="-66.95" xlink:href="#linear-gradient"/><linearGradient id="linear-gradient-5" x1="436.47" y1="478.68" x2="428.56" y2="-67.26" xlink:href="#linear-gradient"/><linearGradient id="linear-gradient-6" x1="429.63" y1="478.78" x2="421.72" y2="-67.16" xlink:href="#linear-gradient"/><linearGradient id="linear-gradient-7" x1="419.72" y1="478.92" x2="411.81" y2="-67.01" xlink:href="#linear-gradient"/><linearGradient id="linear-gradient-8" x1="411.22" y1="479.04" x2="403.31" y2="-66.89" xlink:href="#linear-gradient"/><linearGradient id="linear-gradient-9" x1="405.7" y1="479.12" x2="397.79" y2="-66.81" xlink:href="#linear-gradient"/><linearGradient id="linear-gradient-10" x1="395.7" y1="479.27" x2="387.78" y2="-66.67" xlink:href="#linear-gradient"/><linearGradient id="linear-gradient-11" x1="394.42" y1="479.29" x2="386.5" y2="-66.65" xlink:href="#linear-gradient"/><linearGradient id="linear-gradient-12" x1="383.14" y1="479.45" x2="375.23" y2="-66.48" xlink:href="#linear-gradient"/><linearGradient id="linear-gradient-13" x1="385.89" y1="479.41" x2="377.98" y2="-66.52" xlink:href="#linear-gradient"/><linearGradient id="linear-gradient-14" x1="373.64" y1="479.59" x2="365.73" y2="-66.35" xlink:href="#linear-gradient"/><linearGradient id="linear-gradient-15" x1="380.25" y1="479.49" x2="372.34" y2="-66.44" xlink:href="#linear-gradient"/><linearGradient id="linear-gradient-16" x1="367.29" y1="479.68" x2="359.38" y2="-66.25" xlink:href="#linear-gradient"/><linearGradient id="linear-gradient-17" x1="377.57" y1="479.53" x2="369.66" y2="-66.4" xlink:href="#linear-gradient"/><linearGradient id="linear-gradient-18" x1="364.16" y1="479.73" x2="356.25" y2="-66.21" xlink:href="#linear-gradient"/><linearGradient id="linear-gradient-19" x1="377.55" y1="479.53" x2="369.64" y2="-66.4" xlink:href="#linear-gradient"/><linearGradient id="linear-gradient-20" x1="364.08" y1="479.73" x2="356.16" y2="-66.21" xlink:href="#linear-gradient"/><linearGradient id="linear-gradient-21" x1="380.37" y1="479.49" x2="372.46" y2="-66.44" xlink:href="#linear-gradient"/><linearGradient id="linear-gradient-22" x1="367.18" y1="479.68" x2="359.27" y2="-66.25" xlink:href="#linear-gradient"/><linearGradient id="linear-gradient-23" x1="386.25" y1="479.4" x2="378.34" y2="-66.53" xlink:href="#linear-gradient"/><linearGradient id="linear-gradient-24" x1="374.08" y1="479.58" x2="366.17" y2="-66.35" xlink:href="#linear-gradient"/><linearGradient id="linear-gradient-25" x1="395.27" y1="479.27" x2="387.36" y2="-66.66" xlink:href="#linear-gradient"/><linearGradient id="linear-gradient-26" x1="384.77" y1="479.43" x2="376.86" y2="-66.51" xlink:href="#linear-gradient"/><linearGradient id="linear-gradient-27" x1="407.52" y1="479.1" x2="399.61" y2="-66.84" xlink:href="#linear-gradient"/><linearGradient id="linear-gradient-28" x1="399.34" y1="479.22" x2="391.43" y2="-66.72" xlink:href="#linear-gradient"/><linearGradient id="linear-gradient-29" x1="420.46" y1="478.91" x2="412.55" y2="-67.03" xlink:href="#linear-gradient"/><linearGradient id="linear-gradient-30" x1="591.42" y1="476.43" x2="583.51" y2="-69.5" xlink:href="#linear-gradient"/><linearGradient id="linear-gradient-31" x1="565.24" y1="476.81" x2="557.33" y2="-69.12" xlink:href="#linear-gradient"/><linearGradient id="linear-gradient-32" x1="571.78" y1="476.72" x2="563.87" y2="-69.22" xlink:href="#linear-gradient"/><linearGradient id="linear-gradient-33" x1="582.24" y1="476.56" x2="574.33" y2="-69.37" xlink:href="#linear-gradient"/><linearGradient id="linear-gradient-34" x1="590.48" y1="476.45" x2="582.57" y2="-69.49" xlink:href="#linear-gradient"/><linearGradient id="linear-gradient-35" x1="596.62" y1="476.36" x2="588.71" y2="-69.58" xlink:href="#linear-gradient"/><linearGradient id="linear-gradient-36" x1="606.38" y1="476.21" x2="598.47" y2="-69.72" xlink:href="#linear-gradient"/><linearGradient id="linear-gradient-37" x1="608.3" y1="476.19" x2="600.39" y2="-69.75" xlink:href="#linear-gradient"/><linearGradient id="linear-gradient-38" x1="619.37" y1="476.03" x2="611.46" y2="-69.91" xlink:href="#linear-gradient"/><linearGradient id="linear-gradient-39" x1="617.27" y1="476.06" x2="609.36" y2="-69.88" xlink:href="#linear-gradient"/><linearGradient id="linear-gradient-40" x1="629.37" y1="475.88" x2="621.45" y2="-70.05" xlink:href="#linear-gradient"/><linearGradient id="linear-gradient-41" x1="623.41" y1="475.97" x2="615.5" y2="-69.97" xlink:href="#linear-gradient"/><linearGradient id="linear-gradient-42" x1="636.25" y1="475.78" x2="628.34" y2="-70.15" xlink:href="#linear-gradient"/><linearGradient id="linear-gradient-43" x1="626.59" y1="475.92" x2="618.68" y2="-70.01" xlink:href="#linear-gradient"/><linearGradient id="linear-gradient-44" x1="639.93" y1="475.73" x2="632.02" y2="-70.21" xlink:href="#linear-gradient"/><linearGradient id="linear-gradient-45" x1="627.04" y1="475.92" x2="619.13" y2="-70.02" xlink:href="#linear-gradient"/><linearGradient id="linear-gradient-46" x1="640.51" y1="475.72" x2="632.59" y2="-70.21" xlink:href="#linear-gradient"/><linearGradient id="linear-gradient-47" x1="624.71" y1="475.95" x2="616.8" y2="-69.99" xlink:href="#linear-gradient"/><linearGradient id="linear-gradient-48" x1="637.99" y1="475.76" x2="630.08" y2="-70.18" xlink:href="#linear-gradient"/><linearGradient id="linear-gradient-49" x1="619.31" y1="476.03" x2="611.4" y2="-69.91" xlink:href="#linear-gradient"/><linearGradient id="linear-gradient-50" x1="631.69" y1="475.85" x2="623.78" y2="-70.09" xlink:href="#linear-gradient"/><linearGradient id="linear-gradient-51" x1="610.74" y1="476.15" x2="602.83" y2="-69.78" xlink:href="#linear-gradient"/><linearGradient id="linear-gradient-52" x1="621.53" y1="476" x2="613.62" y2="-69.94" xlink:href="#linear-gradient"/><linearGradient id="linear-gradient-53" x1="598.91" y1="476.32" x2="591" y2="-69.61" xlink:href="#linear-gradient"/><linearGradient id="linear-gradient-54" x1="607.45" y1="476.2" x2="599.54" y2="-69.74" xlink:href="#linear-gradient"/><linearGradient id="linear-gradient-55" x1="582.43" y1="476.56" x2="574.52" y2="-69.37" xlink:href="#linear-gradient"/><linearGradient id="linear-gradient-56" x1="220.4" y1="296.62" x2="212.49" y2="-249.32" xlink:href="#linear-gradient"/><linearGradient id="linear-gradient-57" x1="171.61" y1="297.32" x2="163.7" y2="-248.61" xlink:href="#linear-gradient"/><linearGradient id="linear-gradient-58" x1="268.61" y1="295.92" x2="260.69" y2="-250.02" xlink:href="#linear-gradient"/><linearGradient id="linear-gradient-59" x1="485.13" y1="477.97" x2="477.22" y2="-67.96" xlink:href="#linear-gradient"/><linearGradient id="linear-gradient-60" x1="493.4" y1="477.85" x2="485.49" y2="-68.09" xlink:href="#linear-gradient"/><linearGradient id="linear-gradient-61" x1="502.19" y1="477.72" x2="494.28" y2="-68.21" xlink:href="#linear-gradient"/><linearGradient id="linear-gradient-62" x1="512.58" y1="477.57" x2="504.67" y2="-68.36" xlink:href="#linear-gradient"/><linearGradient id="linear-gradient-63" x1="519.38" y1="477.48" x2="511.47" y2="-68.46" xlink:href="#linear-gradient"/><linearGradient id="linear-gradient-64" x1="486.95" y1="477.95" x2="479.03" y2="-67.99" xlink:href="#linear-gradient"/><linearGradient id="linear-gradient-65" x1="496.06" y1="477.81" x2="488.14" y2="-68.12" xlink:href="#linear-gradient"/><linearGradient id="linear-gradient-66" x1="504.87" y1="477.69" x2="496.96" y2="-68.25" xlink:href="#linear-gradient"/><linearGradient id="linear-gradient-67" x1="513.84" y1="477.56" x2="505.93" y2="-68.38" xlink:href="#linear-gradient"/><linearGradient id="linear-gradient-68" x1="303" y1="557" x2="303" y2="409.84" xlink:href="#linear-gradient"/><linearGradient id="linear-gradient-69" x1="347.63" y1="557" x2="347.63" y2="409.84" xlink:href="#linear-gradient"/><linearGradient id="linear-gradient-70" x1="400.26" y1="557" x2="400.26" y2="409.84" xlink:href="#linear-gradient"/><linearGradient id="linear-gradient-71" x1="453.75" y1="557" x2="453.75" y2="409.84" xlink:href="#linear-gradient"/><linearGradient id="linear-gradient-72" x1="492.05" y1="557" x2="492.05" y2="409.84" xlink:href="#linear-gradient"/><linearGradient id="linear-gradient-73" x1="534.92" y1="557" x2="534.92" y2="409.84" xlink:href="#linear-gradient"/><linearGradient id="linear-gradient-74" x1="591.07" y1="557" x2="591.07" y2="409.84" xlink:href="#linear-gradient"/><linearGradient id="linear-gradient-75" x1="642.31" y1="557" x2="642.31" y2="409.84" xlink:href="#linear-gradient"/><linearGradient id="linear-gradient-76" x1="692.16" y1="557" x2="692.16" y2="409.84" xlink:href="#linear-gradient"/></defs><title>Logo3</title><g id="OBJECTS"><path class="cls-1" d="M564.41,353.16l-25.7,10.38L507.79,376h0l-.16.07-.25.08-.74.26-.43.11c-.21.06-.42.11-.64.15l-.5.09-.58.07-.54,0-.56,0h0c-.31,0-.63,0-.94,0l-.15,0c-.27,0-.55-.07-.82-.11l-.27,0-.12,0-.62-.15-.33-.09-.74-.26-.25-.08-85.52-34.56a11.59,11.59,0,0,1-6.7-14.71,11.34,11.34,0,0,1,14.84-6.46l76,30.71,1.27.52a11.61,11.61,0,0,0,8.67,0l68.72-27.77,14.32-5.79a1.84,1.84,0,0,0,.1-3.43L511.59,278.9a20.09,20.09,0,0,0-16.49,0l-82.86,37.37a15.54,15.54,0,0,0-.59,29.05l85.5,34.54a15,15,0,0,0,3.16,1l.21,0c.37.07.75.13,1.13.17l.33,0c.45,0,.91.07,1.36.07h0a15.39,15.39,0,0,0,5.82-1.14l78.32-31.63c3.79-1.53,4.45-2.9,4.45-6.33Zm-61.06-4.33Zm-89.81-33-.09,0,.09,0m2.64-.45-.26,0,.26,0m-1.32.16-.2,0,.2,0" transform="translate(-285.29 -181.06)"/><path class="cls-2" d="M503.34,371.63a12.89,12.89,0,0,1-3.62-.53l-.12,0L417.16,337.7a1.32,1.32,0,0,1,1-2.44l82.37,33.34a10.06,10.06,0,0,0,5.65,0l79.54-32.08a1.31,1.31,0,1,1,1,2.44l-79.6,32.1-.12,0a13,13,0,0,1-3.63.53" transform="translate(-285.29 -181.06)"/><path class="cls-3" d="M503.34,362.48a12.89,12.89,0,0,1-3.62-.53l-.12,0-82.44-33.37a1.31,1.31,0,0,1,1-2.43l82.37,33.34a10,10,0,0,0,5.65,0l79.54-32.07a1.31,1.31,0,1,1,1,2.44l-79.6,32.1-.12,0a13,13,0,0,1-3.63.53" transform="translate(-285.29 -181.06)"/><path class="cls-4" d="M408.82,236.37c-5.46,4.61-6.69,12.12-6.69,12.12s7.61,0,13.07-4.58,6.69-12.12,6.69-12.12-7.62,0-13.07,4.58" transform="translate(-285.29 -181.06)"/><path class="cls-5" d="M439.25,415.08A23.47,23.47,0,0,1,443.53,428c0,.09-9.43-2.94-13.48-9.53a16.49,16.49,0,0,1-1.77-13,38.84,38.84,0,0,1,11,9.61" transform="translate(-285.29 -181.06)"/><path class="cls-6" d="M431.81,435a16.18,16.18,0,0,0,11.79-7.28c-.1,0-9-2.9-16.75-2.28a21.46,21.46,0,0,0-12.63,5.39c-.11,0,9.06,5.3,17.59,4.17" transform="translate(-285.29 -181.06)"/><path class="cls-7" d="M423,407.18a23.05,23.05,0,0,1,1.45,13.15c0,.09-8.23-4.39-10.8-11.43a16.54,16.54,0,0,1,.82-12.85A35.73,35.73,0,0,1,423,407.18" transform="translate(-285.29 -181.06)"/><path class="cls-8" d="M412,425.16a16,16,0,0,0,12.5-5.06c-.09,0-7.82-4.28-15.31-5a21.12,21.12,0,0,0-13,3.08c-.11,0,7.62,6.65,15.85,7" transform="translate(-285.29 -181.06)"/><path class="cls-9" d="M409,396.79a23,23,0,0,1-1.13,13c0,.08-7-5.64-8.16-12.9a16.48,16.48,0,0,1,3.16-12.31c0,.07,4.6,5.51,6.13,12.24" transform="translate(-285.29 -181.06)"/><path class="cls-10" d="M395.17,412.33a15.67,15.67,0,0,0,12.88-2.78c-.08,0-6.61-5.45-13.69-7.42a20.76,20.76,0,0,0-13.14.74c-.09,0,6.15,7.76,13.95,9.46" transform="translate(-285.29 -181.06)"/><path class="cls-11" d="M397.54,384.34a22.63,22.63,0,0,1-3.46,12.37c0,.09-5.71-6.66-5.56-13.92a16.41,16.41,0,0,1,5.25-11.42c0,.07,3.51,6.17,3.77,13" transform="translate(-285.29 -181.06)"/><path class="cls-12" d="M381.32,397a15.44,15.44,0,0,0,12.95-.47c-.08,0-5.37-6.42-11.91-9.57a20.46,20.46,0,0,0-12.91-1.56c-.09,0,4.63,8.61,11.87,11.6" transform="translate(-285.29 -181.06)"/><path class="cls-13" d="M388.58,370.22a22.42,22.42,0,0,1-5.53,11.44c0,.08-4.39-7.47-3-14.53a16.13,16.13,0,0,1,7.07-10.23c0,.07,2.39,6.66,1.46,13.32" transform="translate(-285.29 -181.06)"/><path class="cls-14" d="M370.57,379.72a15.27,15.27,0,0,0,12.69,1.81c-.07,0-4.09-7.19-9.95-11.41A20.46,20.46,0,0,0,361,366.31c-.09,0,3.06,9.23,9.6,13.41" transform="translate(-285.29 -181.06)"/><path class="cls-15" d="M382.24,354.86a22,22,0,0,1-7.35,10.2c0,.07-3-8.07-.48-14.75a15.83,15.83,0,0,1,8.63-8.77c0,.06,1.23,7-.8,13.32" transform="translate(-285.29 -181.06)"/><path class="cls-16" d="M363,361a15.19,15.19,0,0,0,12.1,4c-.06,0-2.78-7.74-7.8-12.92a20.55,20.55,0,0,0-11.46-5.94c-.07-.05,1.46,9.6,7.16,14.85" transform="translate(-285.29 -181.06)"/><path class="cls-17" d="M378.6,338.66a21.37,21.37,0,0,1-8.89,8.7c0,.07-1.61-8.46,2-14.58a15.51,15.51,0,0,1,9.91-7.1c0,.06,0,7.1-3,13" transform="translate(-285.29 -181.06)"/><path class="cls-18" d="M358.76,341.2A15.28,15.28,0,0,0,370,347.31c-.05-.05-1.44-8.09-5.49-14.1a20.74,20.74,0,0,0-10.22-7.9c-.06-.06-.18,9.73,4.52,15.89" transform="translate(-285.29 -181.06)"/><path class="cls-19" d="M377.74,322a20.92,20.92,0,0,1-10.16,7c-.06.06-.16-8.63,4.4-14a15.22,15.22,0,0,1,10.92-5.25s-1.19,7-5.16,12.31" transform="translate(-285.29 -181.06)"/><path class="cls-20" d="M357.9,321a15.44,15.44,0,0,0,9.92,8c0-.06-.05-8.24-3-14.92a21,21,0,0,0-8.63-9.66c-.06-.07-1.86,9.62,1.7,16.54" transform="translate(-285.29 -181.06)"/><path class="cls-21" d="M379.76,305.42a20.49,20.49,0,0,1-11.16,5.11c-.07.06,1.33-8.58,6.77-13.16a15.06,15.06,0,0,1,11.64-3.3c-.06,0-2.45,6.84-7.25,11.35" transform="translate(-285.29 -181.06)"/><path class="cls-22" d="M360.53,300.83a15.42,15.42,0,0,0,8.31,9.74c0-.06,1.37-8.17-.31-15.35a21.13,21.13,0,0,0-6.69-11.16c0-.08-3.58,9.25-1.31,16.77" transform="translate(-285.29 -181.06)"/><path class="cls-23" d="M384.73,289.21a20.18,20.18,0,0,1-11.86,3.12c-.09,0,2.86-8.31,9.08-11.95A14.93,14.93,0,0,1,394,279.12c-.07,0-3.75,6.44-9.29,10.09" transform="translate(-285.29 -181.06)"/><path class="cls-24" d="M366.75,281.21a15.38,15.38,0,0,0,6.35,11.2c0-.06,2.82-7.9,2.56-15.38a21.39,21.39,0,0,0-4.41-12.38c0-.08-5.34,8.65-4.5,16.56" transform="translate(-285.29 -181.06)"/><path class="cls-25" d="M392.75,273.84a20,20,0,0,1-12.28,1.05c-.1,0,4.44-7.83,11.34-10.42a14.79,14.79,0,0,1,12.21.81c-.09,0-5.1,5.86-11.27,8.56" transform="translate(-285.29 -181.06)"/><path class="cls-26" d="M376.66,262.65a15.35,15.35,0,0,0,4,12.36c0-.06,4.3-7.42,5.61-15a21.69,21.69,0,0,0-1.74-13.24c0-.08-7.14,7.81-7.89,15.89" transform="translate(-285.29 -181.06)"/><path class="cls-27" d="M403.9,259.73a19.66,19.66,0,0,1-12.4-1.05c-.11,0,6.05-7.14,13.54-8.6a14.44,14.44,0,0,1,12,2.87c-.09,0-6.47,5.1-13.17,6.78" transform="translate(-285.29 -181.06)"/><path class="cls-28" d="M390.35,245.68a15.49,15.49,0,0,0,1.33,13.16c0-.07,5.83-6.75,8.86-14.21s1.36-13.7,1.29-13.71-9,6.72-11.48,14.76" transform="translate(-285.29 -181.06)"/><path class="cls-29" d="M470.31,431.11l-.08-1.48a91,91,0,0,1-36-5.4,96.12,96.12,0,0,1-31-18.51,100.72,100.72,0,0,1-33.33-66.4c-2-21.2.16-39.94,6.31-55.71,6.6-16.94,17.72-30,33.05-38.73l-.74-1.28c-15.63,8.93-27,22.21-33.69,39.47-6.24,16-8.39,35-6.4,56.39a102.19,102.19,0,0,0,33.82,67.37,97.45,97.45,0,0,0,31.46,18.79,92.38,92.38,0,0,0,36.61,5.49" transform="translate(-285.29 -181.06)"/><path class="cls-30" d="M591.18,236.37c5.46,4.61,6.69,12.12,6.69,12.12s-7.61,0-13.07-4.58-6.69-12.12-6.69-12.12,7.62,0,13.07,4.58" transform="translate(-285.29 -181.06)"/><path class="cls-31" d="M560.75,415.08A23.47,23.47,0,0,0,556.47,428c0,.09,9.44-2.94,13.48-9.53a16.49,16.49,0,0,0,1.77-13,38.84,38.84,0,0,0-11,9.61" transform="translate(-285.29 -181.06)"/><path class="cls-32" d="M568.19,435a16.18,16.18,0,0,1-11.79-7.28c.1,0,9-2.9,16.75-2.28a21.46,21.46,0,0,1,12.63,5.39c.11,0-9.06,5.3-17.59,4.17" transform="translate(-285.29 -181.06)"/><path class="cls-33" d="M577,407.18a23.05,23.05,0,0,0-1.45,13.15c0,.09,8.23-4.39,10.8-11.43a16.54,16.54,0,0,0-.82-12.85A35.73,35.73,0,0,0,577,407.18" transform="translate(-285.29 -181.06)"/><path class="cls-34" d="M588,425.16a16,16,0,0,1-12.5-5.06c.09,0,7.82-4.28,15.31-5a21.12,21.12,0,0,1,13,3.08c.11,0-7.62,6.65-15.85,7" transform="translate(-285.29 -181.06)"/><path class="cls-35" d="M591,396.79a23.05,23.05,0,0,0,1.13,13c0,.08,7-5.64,8.16-12.9a16.48,16.48,0,0,0-3.16-12.31c0,.07-4.6,5.51-6.13,12.24" transform="translate(-285.29 -181.06)"/><path class="cls-36" d="M604.83,412.33A15.65,15.65,0,0,1,592,409.55c.08,0,6.61-5.45,13.69-7.42a20.76,20.76,0,0,1,13.14.74c.09,0-6.15,7.76-13.95,9.46" transform="translate(-285.29 -181.06)"/><path class="cls-37" d="M602.46,384.34a22.63,22.63,0,0,0,3.46,12.37c0,.09,5.71-6.66,5.56-13.92a16.41,16.41,0,0,0-5.25-11.42c0,.07-3.51,6.17-3.77,13" transform="translate(-285.29 -181.06)"/><path class="cls-38" d="M618.68,397a15.44,15.44,0,0,1-12.95-.47c.08,0,5.37-6.42,11.91-9.57a20.46,20.46,0,0,1,12.91-1.56c.09,0-4.63,8.61-11.87,11.6" transform="translate(-285.29 -181.06)"/><path class="cls-39" d="M611.42,370.22A22.42,22.42,0,0,0,617,381.66c0,.08,4.39-7.47,3-14.53a16.13,16.13,0,0,0-7.07-10.23c0,.07-2.39,6.66-1.46,13.32" transform="translate(-285.29 -181.06)"/><path class="cls-40" d="M629.43,379.72a15.27,15.27,0,0,1-12.69,1.81c.07,0,4.09-7.19,10-11.41A20.46,20.46,0,0,1,639,366.31c.08,0-3.06,9.23-9.6,13.41" transform="translate(-285.29 -181.06)"/><path class="cls-41" d="M617.76,354.86a22,22,0,0,0,7.35,10.2c0,.07,3-8.07.48-14.75a15.83,15.83,0,0,0-8.63-8.77c0,.06-1.23,7,.8,13.32" transform="translate(-285.29 -181.06)"/><path class="cls-42" d="M637,361a15.22,15.22,0,0,1-12.11,4c.06,0,2.78-7.74,7.8-12.92a20.55,20.55,0,0,1,11.46-5.94c.07-.05-1.47,9.6-7.15,14.85" transform="translate(-285.29 -181.06)"/><path class="cls-43" d="M621.4,338.66a21.3,21.3,0,0,0,8.9,8.7c0,.07,1.6-8.46-2-14.58a15.51,15.51,0,0,0-9.91-7.1c0,.06,0,7.1,3,13" transform="translate(-285.29 -181.06)"/><path class="cls-44" d="M641.24,341.2a15.28,15.28,0,0,1-11.19,6.11c.05-.05,1.44-8.09,5.49-14.1a20.74,20.74,0,0,1,10.22-7.9c.06-.06.18,9.73-4.52,15.89" transform="translate(-285.29 -181.06)"/><path class="cls-45" d="M622.26,322a20.92,20.92,0,0,0,10.16,7c.06.06.16-8.63-4.4-14a15.22,15.22,0,0,0-10.92-5.25s1.19,7,5.16,12.31" transform="translate(-285.29 -181.06)"/><path class="cls-46" d="M642.1,321a15.44,15.44,0,0,1-9.92,8c0-.06.05-8.24,3-14.92a21,21,0,0,1,8.63-9.66c.06-.07,1.86,9.62-1.7,16.54" transform="translate(-285.29 -181.06)"/><path class="cls-47" d="M620.24,305.42a20.49,20.49,0,0,0,11.16,5.11c.07.06-1.33-8.58-6.77-13.16a15.06,15.06,0,0,0-11.64-3.3c.06,0,2.45,6.84,7.25,11.35" transform="translate(-285.29 -181.06)"/><path class="cls-48" d="M639.47,300.83a15.42,15.42,0,0,1-8.31,9.74c0-.06-1.37-8.17.31-15.35a21.13,21.13,0,0,1,6.69-11.16c.05-.08,3.58,9.25,1.31,16.77" transform="translate(-285.29 -181.06)"/><path class="cls-49" d="M615.27,289.21a20.18,20.18,0,0,0,11.86,3.12c.09,0-2.86-8.31-9.08-11.95A14.93,14.93,0,0,0,606,279.12c.07,0,3.75,6.44,9.29,10.09" transform="translate(-285.29 -181.06)"/><path class="cls-50" d="M633.24,281.21a15.35,15.35,0,0,1-6.34,11.2c0-.06-2.81-7.9-2.56-15.38a21.39,21.39,0,0,1,4.41-12.38c0-.08,5.34,8.65,4.49,16.56" transform="translate(-285.29 -181.06)"/><path class="cls-51" d="M607.25,273.84a20,20,0,0,0,12.28,1.05c.1,0-4.44-7.83-11.34-10.42a14.79,14.79,0,0,0-12.21.81c.09,0,5.1,5.86,11.27,8.56" transform="translate(-285.29 -181.06)"/><path class="cls-52" d="M623.34,262.65a15.35,15.35,0,0,1-4,12.36c0-.06-4.3-7.42-5.61-15a21.69,21.69,0,0,1,1.74-13.24c0-.08,7.14,7.81,7.89,15.89" transform="translate(-285.29 -181.06)"/><path class="cls-53" d="M596.1,259.73a19.66,19.66,0,0,0,12.4-1.05c.11,0-6-7.14-13.54-8.6a14.44,14.44,0,0,0-12,2.87c.09,0,6.47,5.1,13.17,6.78" transform="translate(-285.29 -181.06)"/><path class="cls-54" d="M609.65,245.68a15.49,15.49,0,0,1-1.33,13.16c0-.07-5.83-6.75-8.86-14.21s-1.36-13.7-1.29-13.71,9,6.72,11.48,14.76" transform="translate(-285.29 -181.06)"/><path class="cls-55" d="M529.69,431.11l.08-1.48a91,91,0,0,0,36-5.4,96.12,96.12,0,0,0,31-18.51,100.72,100.72,0,0,0,33.33-66.4c2-21.2-.16-39.94-6.31-55.71-6.6-16.94-17.72-30-33-38.73l.73-1.28c15.63,8.93,27,22.21,33.69,39.47,6.24,16,8.39,35,6.4,56.39a102.14,102.14,0,0,1-33.82,67.37,97.45,97.45,0,0,1-31.46,18.79,92.38,92.38,0,0,1-36.61,5.49" transform="translate(-285.29 -181.06)"/><polygon class="cls-56" points="216.31 0 222.61 12.76 236.69 14.81 226.5 24.74 228.91 38.77 216.31 32.14 203.72 38.77 206.12 24.74 195.93 14.81 210.01 12.76 216.31 0"/><polygon class="cls-57" points="167.81 23.76 172.46 33.18 182.86 34.69 175.33 42.03 177.11 52.4 167.81 47.5 158.5 52.4 160.28 42.03 152.75 34.69 163.15 33.18 167.81 23.76"/><polygon class="cls-58" points="264.82 23.76 269.47 33.18 279.88 34.69 272.35 42.03 274.13 52.4 264.82 47.5 255.52 52.4 257.29 42.03 249.76 34.69 260.17 33.18 264.82 23.76"/><path class="cls-59" d="M487.15,420.09h-4.58v4.25h5.1v1.28h-6.62V413.83h6.36v1.28h-4.84v3.72h4.58Z" transform="translate(-285.29 -181.06)"/><path class="cls-60" d="M489.44,423.76a5.35,5.35,0,0,0,2.72.77c1.56,0,2.47-.82,2.47-2s-.63-1.73-2.22-2.34c-1.93-.68-3.11-1.68-3.11-3.34,0-1.83,1.52-3.2,3.81-3.2a5.3,5.3,0,0,1,2.6.58l-.42,1.24a4.67,4.67,0,0,0-2.24-.56c-1.6,0-2.22,1-2.22,1.77,0,1.1.72,1.64,2.35,2.27,2,.77,3,1.73,3,3.46s-1.34,3.39-4.12,3.39a6.09,6.09,0,0,1-3-.75Z" transform="translate(-285.29 -181.06)"/><path class="cls-61" d="M500.5,415.13h-3.58v-1.3h8.72v1.3H502v10.49H500.5Z" transform="translate(-285.29 -181.06)"/><path class="cls-62" d="M507,414a21.75,21.75,0,0,1,3.23-.24,6.74,6.74,0,0,1,4.77,1.46,5.44,5.44,0,0,1,1.66,4.23,6.22,6.22,0,0,1-1.69,4.58,7.22,7.22,0,0,1-5.21,1.7,24,24,0,0,1-2.76-.14Zm1.52,10.42a9.5,9.5,0,0,0,1.54.09c3.25,0,5-1.82,5-5,0-2.78-1.55-4.55-4.77-4.55a8.43,8.43,0,0,0-1.78.16Z" transform="translate(-285.29 -181.06)"/><path class="cls-63" d="M517.57,424.71a1,1,0,0,1,1-1.11,1.11,1.11,0,1,1-1,1.11Z" transform="translate(-285.29 -181.06)"/><path class="cls-64" d="M482.86,446.59v-.95l1.2-1.17c2.9-2.76,4.21-4.23,4.23-5.94a2,2,0,0,0-2.25-2.22,3.89,3.89,0,0,0-2.42,1l-.48-1.08a4.93,4.93,0,0,1,3.21-1.16,3.2,3.2,0,0,1,3.48,3.31c0,2.09-1.52,3.79-3.92,6.1l-.9.84v0h5.1v1.28Z" transform="translate(-285.29 -181.06)"/><path class="cls-65" d="M499.37,440.78c0,3.87-1.43,6-3.95,6-2.22,0-3.72-2.08-3.76-5.84s1.65-5.91,4-5.91S499.37,437.17,499.37,440.78Zm-6.17.18c0,3,.91,4.63,2.31,4.63,1.57,0,2.32-1.83,2.32-4.74s-.71-4.63-2.3-4.63C494.18,436.22,493.2,437.87,493.2,441Z" transform="translate(-285.29 -181.06)"/><path class="cls-66" d="M500.79,446.59v-.95l1.2-1.17c2.91-2.76,4.22-4.23,4.23-5.94a2,2,0,0,0-2.25-2.22,3.84,3.84,0,0,0-2.41,1l-.49-1.08a4.93,4.93,0,0,1,3.21-1.16,3.2,3.2,0,0,1,3.48,3.31c0,2.09-1.52,3.79-3.91,6.1l-.91.84v0H508v1.28Z" transform="translate(-285.29 -181.06)"/><path class="cls-67" d="M509.75,446.59v-.95l1.21-1.17c2.9-2.76,4.21-4.23,4.23-5.94a2,2,0,0,0-2.25-2.22,3.87,3.87,0,0,0-2.42,1l-.49-1.08a5,5,0,0,1,3.22-1.16,3.2,3.2,0,0,1,3.48,3.31c0,2.09-1.52,3.79-3.92,6.1l-.91.84v0H517v1.28Z" transform="translate(-285.29 -181.06)"/><path class="cls-68" d="M302,499.42v6.52h16.5v12.53H302V526H320.7v13.27H285.29V486.14H320.7v13.28Z" transform="translate(-285.29 -181.06)"/><path class="cls-69" d="M327,506.51a17.37,17.37,0,0,1,6.26-7.5,16,16,0,0,1,8.93-2.59,14.06,14.06,0,0,1,7.09,1.69,11.5,11.5,0,0,1,4.54,4.61v-19h16.65v55.51H353.86v-5.77a11.5,11.5,0,0,1-4.54,4.61,14.06,14.06,0,0,1-7.09,1.69,16,16,0,0,1-8.93-2.59,17.37,17.37,0,0,1-6.26-7.5,30.47,30.47,0,0,1,0-23.18Zm25.16,6.34a6.17,6.17,0,0,0-8.85,0,8.87,8.87,0,0,0,0,10.5,6.17,6.17,0,0,0,8.85,0,8.83,8.83,0,0,0,0-10.5Z" transform="translate(-285.29 -181.06)"/><path class="cls-70" d="M422.81,497v42.3H406.15V532.8a15.08,15.08,0,0,1-5.21,4.88,15.36,15.36,0,0,1-7.77,1.87q-7.28,0-11.37-4.87t-4.09-13.2V497h16.58v22.43a6.75,6.75,0,0,0,1.62,4.76,6.21,6.21,0,0,0,8.66,0,6.82,6.82,0,0,0,1.58-4.76V497Z" transform="translate(-285.29 -181.06)"/><path class="cls-71" d="M465.57,493.8a4.79,4.79,0,0,0-2.85.7,3.89,3.89,0,0,0-1.36,2.45h6.08v13.87h-6.23v28.43H444.56V510.82h-4.5V497h4.5q.15-8.26,5.21-12.8T464,479.61c.7,0,1.85.06,3.45.16v14.17C466.54,493.84,465.91,493.8,465.57,493.8Z" transform="translate(-285.29 -181.06)"/><path class="cls-72" d="M480.57,537.15a19.24,19.24,0,0,1-8-7.54,24.37,24.37,0,0,1,0-23,19.3,19.3,0,0,1,8-7.54,26.35,26.35,0,0,1,22.95,0,19.3,19.3,0,0,1,8,7.54,24.37,24.37,0,0,1,0,23,19.24,19.24,0,0,1-8,7.54,26.35,26.35,0,0,1-22.95,0ZM496,523.54a10.21,10.21,0,0,0,0-10.88,5.06,5.06,0,0,0-7.81,0,8.17,8.17,0,0,0-1.57,5.44,8.28,8.28,0,0,0,1.54,5.44,5.1,5.1,0,0,0,7.84,0Z" transform="translate(-285.29 -181.06)"/><path class="cls-73" d="M542.54,498.86a14.64,14.64,0,0,1,7.65-2.21v17.77h-4.73q-4.73,0-6.94,1.65t-2.21,5.86v17.32H519.65V497h16.66v7.8A20.07,20.07,0,0,1,542.54,498.86Z" transform="translate(-285.29 -181.06)"/><path class="cls-74" d="M618.45,486.14l-19.05,37v16.13H582.74V523.12l-19-37h19L591.22,505l8.48-18.83Z" transform="translate(-285.29 -181.06)"/><path class="cls-75" d="M630.84,537.15a19.26,19.26,0,0,1-8-7.54,24.44,24.44,0,0,1,0-23,19.32,19.32,0,0,1,8-7.54,26.35,26.35,0,0,1,22.95,0,19.36,19.36,0,0,1,8,7.54,24.37,24.37,0,0,1,0,23,19.3,19.3,0,0,1-8,7.54,26.35,26.35,0,0,1-22.95,0Zm15.37-13.61a10.16,10.16,0,0,0,0-10.88,5.05,5.05,0,0,0-7.8,0,8.17,8.17,0,0,0-1.57,5.44,8.28,8.28,0,0,0,1.54,5.44,4.87,4.87,0,0,0,3.93,1.84A4.92,4.92,0,0,0,646.21,523.54Z" transform="translate(-285.29 -181.06)"/><path class="cls-76" d="M714.71,497v42.3H698.05V532.8a15.08,15.08,0,0,1-5.21,4.88,15.36,15.36,0,0,1-7.77,1.87q-7.27,0-11.36-4.87t-4.09-13.2V497H686.2v22.43a6.79,6.79,0,0,0,1.61,4.76,6.22,6.22,0,0,0,8.67,0,6.87,6.87,0,0,0,1.57-4.76V497Z" transform="translate(-285.29 -181.06)"/></g></svg>